<svg xmlns="http://www.w3.org/2000/svg" viewBox="0 0 240 234" width="40" height="40">
  <path fill="#FF9A00" d="M42.5 0h155C221 0 240 19 240 42.5v149c0 23.5-19 42.5-42.5 42.5h-155C19 234 0 215 0 191.5v-149C0 19 19 0 42.5 0z"/>
  <path fill="#330000" d="M116 140H78l-8 24c-.2.9-1 1.5-1.9 1.4H50.2c-1.1 0-1.4-.6-1.1-1.8l32.2-92.8c.3-1 .6-2.1 1-3.3.4-2.1.6-4.3.6-6.5-.1-.5.3-1 .8-1.1h25.9c.8 0 1.2.3 1.3.8l36.5 103c.3 1.1 0 1.6-1 1.6h-19.5c-.7.1-1.4-.4-1.6-1.1L116 140zm-31.4-20.3h25.4c-.7-2.2-1.4-4.4-2.2-6.6l-10.4-31.2c-.3-.8-.6-1.6-1-2.4h-.2c-.3.8-.6 1.6-.9 2.4l-10.3 31.2c-.7 2.2-1.4 4.4-2.1 6.6h1.7zm78.9-84.2c0-.8.3-1.1 1-1.1h19.3c.7 0 1 .4 1 1.1v83.3h40.2c.8 0 1.1.4 1.1 1.1v16.1c0 .7-.3 1.1-1.1 1.1h-60.5c-.7 0-1-.4-1-1.1V35.5z"/>
</svg>