<svg xmlns="http://www.w3.org/2000/svg" viewBox="0 0 512 512" width="40" height="40">
  <path fill="#EA7600" d="M254.9 415.6c-73.6 0-133.3-59.7-133.3-133.3s59.7-133.3 133.3-133.3 133.3 59.7 133.3 133.3-59.7 133.3-133.3 133.3zm0-216.3c-45.8 0-83 37.2-83 83s37.2 83 83 83 83-37.2 83-83-37.2-83-83-83z"/>
  <path fill="#EA7600" d="M254.9 332.6c-27.8 0-50.3-22.5-50.3-50.3s22.5-50.3 50.3-50.3 50.3 22.5 50.3 50.3-22.5 50.3-50.3 50.3zm-203.6-83L153.7 96h204.6l102.4 153.6-102.4 153.6H153.7L51.3 249.6z"/>
</svg>