<svg xmlns="http://www.w3.org/2000/svg" viewBox="0 0 240 234" width="40" height="40">
  <path fill="#001E36" d="M42.5 0h155C221 0 240 19 240 42.5v149c0 23.5-19 42.5-42.5 42.5h-155C19 234 0 215 0 191.5v-149C0 19 19 0 42.5 0z"/>
  <path fill="#31A8FF" d="M54 164.1V61.8c0-.7.3-1.1 1-1.1 1.7 0 3.3 0 5.6-.1 2.4-.1 4.9-.1 7.6-.2 2.7-.1 5.6-.1 8.7-.2 3.1-.1 6.1-.1 9.1-.1 8.2 0 15 1 20.6 3.1 5 1.7 9.6 4.5 13.4 8.2 3.2 3.2 5.7 7.1 7.3 11.4 1.5 4.2 2.3 8.5 2.3 13 0 8.6-2 15.7-6 21.3-4 5.6-9.6 9.8-16.1 12.2-6.8 2.5-14.3 3.4-22.5 3.4-2.4 0-4 0-5-.1-1-.1-2.4-.1-4.3-.1v32.1c.1.7-.4 1.3-1.1 1.4h-19.4c-.8 0-1.2-.4-1.2-1.1zm21.8-84.7v33.6c1.4.1 2.7.2 3.9.2h5.3c3.9 0 7.8-.6 11.5-1.8 3.2-.9 6-2.8 8.2-5.3 2.1-2.5 3.1-5.9 3.1-10.3.1-3.1-.7-6.2-2.3-8.9-1.7-2.6-4.1-4.6-7-5.7-3.7-1.5-7.7-2.1-11.8-2-2.6 0-4.9 0-6.8.1-1.8 0-3.2.1-4.1.1zm86.3 107.8c-8.4 0-15.6-1.5-21.5-4.5-5.9-3-10.5-6.6-13.7-10.8-3.3-4.2-4.9-8.3-4.9-12.2 0-1.7.7-3.1 2-4.1 1.3-1.1 3-1.6 4.9-1.6 1.6 0 3.1.5 4.3 1.6 1.2 1.1 2.3 2.3 3.2 3.6.7 1.1 1.6 2.3 2.8 3.7 1.1 1.4 2.7 2.7 4.5 3.8 1.8 1.1 4.1 2 6.8 2.7 2.7.7 6 1.1 9.8 1.1 5.5 0 10.2-.9 14.2-2.7 4-1.8 7-4.3 9.1-7.4 2.1-3.1 3.1-6.6 3.1-10.5 0-4.2-1.2-7.7-3.6-10.4-2.4-2.7-5.6-4.9-9.4-6.6-3.9-1.7-9.3-3.3-16.4-4.8-8.1-1.7-14.7-3.8-19.8-6.2-5.1-2.4-9-5.7-11.5-9.9-2.6-4.2-3.9-9.4-3.9-15.7 0-6.2 1.8-11.8 5.3-16.7 3.5-4.9 8.5-8.8 15-11.7 6.5-2.8 14.2-4.3 23.2-4.3 6.4 0 12.1.8 17.1 2.3 5 1.5 9.2 3.6 12.7 6.3 3.5 2.7 6.1 5.5 7.8 8.6 1.7 3.1 2.6 6.2 2.6 9.3 0 1.7-.6 3.2-1.9 4.5-1.3 1.3-2.9 1.9-4.9 1.9-1.8 0-3.2-.4-4.3-1.3-1.1-.9-2.2-2.1-3.5-3.8-1.9-2.7-4.2-5-6.8-6.7-2.6-1.7-6.5-2.6-11.7-2.6-5.3 0-9.7.9-13.3 2.7-3.6 1.8-6.3 4.2-8.1 7.1-1.8 2.9-2.7 6.1-2.7 9.5 0 3.7 1.1 6.7 3.2 9.1 2.1 2.4 5 4.3 8.5 5.8 3.5 1.5 8.7 3.1 15.5 4.8 7.5 1.7 13.8 3.5 18.9 5.6 5.1 2.1 9.3 4.5 12.7 7.4 3.4 2.9 5.9 6.3 7.5 10.2 1.6 3.9 2.4 8.5 2.4 13.7 0 6.7-1.8 12.7-5.5 18-3.7 5.3-9 9.5-15.9 12.6-6.9 3.1-15.1 4.7-24.7 4.7z"/>
</svg>